<svg xmlns="http://www.w3.org/2000/svg" viewBox="0 0 356.62 515.5"><defs><style>.cls-1,.cls-2,.cls-3,.cls-4,.cls-5,.cls-7,.cls-8,.cls-9{fill-rule:evenodd;}.cls-2{fill:#6d6e70;}.cls-3{fill:#c58224;}.cls-4{fill:#ed9c21;}.cls-5{fill:#fff;}.cls-6{fill:#ab1c20;}.cls-7{fill:#a91c20;}.cls-8{fill:#c61d23;}.cls-9{fill:#6b1517;}</style></defs><g id="Capa_2" data-name="Capa 2"><g id="Capa_1-2" data-name="Capa 1"><path class="cls-1" d="M17.4,264H77.09V250.59c-24.48,0-48.79-.24-73-.24V380.73c24.1,0,48.4-.5,73-.5V366.85H17.4v-38.7H70.67V314.79H17.4Z"/><path class="cls-1" d="M186.9,264H221V380.73h13.35V264h34.46V250.59H186.9Z"/><polygon class="cls-1" points="86.69 380.73 158.89 380.57 158.89 367.19 100.04 367.19 100.04 250.35 86.69 250.35 86.69 380.73"/><rect x="165.21" y="250.35" width="13.35" height="130.38"/><path class="cls-1" d="M291.45,264h59.67V250.59c-24.48,0-48.79-.24-73-.24V380.73c24.11,0,48.39-.5,73-.5V366.85H291.45v-38.7h53.27V314.79H291.45Z"/><path class="cls-2" d="M304.49,234.31q-16,0-24.56-8.24t-8.51-22.7q0-10.08,4.12-17.15A27.89,27.89,0,0,1,287,175.35c9.71-5,27.24-5.16,37-.14a26.21,26.21,0,0,1,10.83,10.08q3.81,6.45,3.81,15.87a35.53,35.53,0,0,1-4.17,17.61,29,29,0,0,1-11.77,11.48Q315.09,234.32,304.49,234.31Zm1.66-4.73a17.07,17.07,0,0,0,14-6.45q5.22-6.48,5.22-19.65,0-13.81-6-21.23c-3.23-4-8.19-6-14.91-6-6.3,0-11.16,2.09-14.61,6.22s-5.17,10.55-5.17,19.16a39.28,39.28,0,0,0,2.83,15.77c1.91,4.3,4.31,7.41,7.22,9.3S301.47,229.58,306.15,229.58Z"/><path class="cls-2" d="M217,233.43v-3.57c3.43-.28,5.4-.54,5.87-.83,1.65-.87,1.37-8.42,1.42-9.95.13-5.32.19-10.43.19-15.43q0-13.93-.29-19.91c-.19-4-.49-6.2-.91-6.67s-1.67-.77-3.76-.92l-2.52-.23v-3.54c10.26.3,20.33,0,30.58,0q7.78,0,11.5,1.46a11.74,11.74,0,0,1,5.66,4.46,13.55,13.55,0,0,1,1.92,7.46,18,18,0,0,1-5.71,13.53q-5.72,5.44-14.53,5.43a27.35,27.35,0,0,1-5.09-.63c-3.74-1.08-3.84-4.82-.55-4.09a16.53,16.53,0,0,0,3.22.44,9.28,9.28,0,0,0,7.16-3q2.77-3.06,2.78-8.54c0-4.07-1-7.12-2.88-9.12s-4.73-3-8.46-3a26,26,0,0,0-5.32.62q-.44,13.45-.43,22.82,0,3.13.34,20.07a53.82,53.82,0,0,0,.43,7.69c.56,2,6.57,1.82,8.22,1.92v3.57Z"/><path class="cls-2" d="M146.85,175.92v-3.54c9.29.27,18.32.3,27.59,0v3.54a15.92,15.92,0,0,0-5.64.71,1.8,1.8,0,0,0-.93.75,4.12,4.12,0,0,0-.65,2.05c-.16,1.61-.31,6.3-.43,14q-.09,8.06-.09,16.39,0,6.84,1.56,10.06a10.16,10.16,0,0,0,4.55,4.76,20.14,20.14,0,0,0,9.43,2.23c4.66,0,8.2-.76,10.66-2.31a11.12,11.12,0,0,0,4.93-6.35q1.26-4.06,1.27-17.76l0-16.13q0-5.46-.53-6.56a1.76,1.76,0,0,0-.9-.9c-.7-.42-2.82-.73-6.37-1v-3.54c6.92.32,13.59.3,20.48,0v3.54c-2.87,0-4.67.33-5.38,1s-1.14,2.28-1.28,4.95c-.35,6.52-.51,13.88-.54,22.11,0,5.26-.07,8.72-.18,10.34a24.33,24.33,0,0,1-2.91,10.26,17.92,17.92,0,0,1-8.09,7,32.19,32.19,0,0,1-14,2.74q-8.7,0-14.49-2.61c-3.87-1.76-6.6-4-8.23-6.61s-2.42-6.55-2.42-11.7l.17-19.63q0-2.34-.17-12a11.6,11.6,0,0,0-.65-4.1,2.33,2.33,0,0,0-1.08-.94A27.05,27.05,0,0,0,146.85,175.92Z"/><path class="cls-2" d="M88,233.43v-3.57A27,27,0,0,0,93.8,229c1.45-.83,1.25-6.5,1.3-7.9.15-6.22.21-11.13.21-14.71q0-7.26-.18-18.44c-.11-5.55-.37-9-.81-10.21-.51-1.63-4.95-1.7-6.3-1.85v-3.54c11.19.32,22.17.13,33.38,0q7.08,0,10.33,1.35a11.11,11.11,0,0,1,5.14,4.38,13.25,13.25,0,0,1,1.88,7.1,14.49,14.49,0,0,1-3,9.14c-2,2.64-5.52,5-10.49,7l9.22,14,7.19,10.74c2.16,2.75,2.8,3.71,6.36,3.78v3.29l-16.75.28c-2.52-4-6.3-9.91-11.33-17.56l-9-13.62a7.81,7.81,0,0,0,.65-1.53c1.18.11,2,.18,2.59.18a12.38,12.38,0,0,0,8-3.28q3.93-3.27,3.94-9.33c0-3.52-1-6.24-3.13-8.18s-5.18-2.93-9.33-2.93c-1.32,0-3.1.1-5.36.26l-.25,12.88-.36,16.34q0,5.55.42,14.19.36,6.53.69,7.3c.79,1.71,5.28,1.63,6.81,1.71v3.57Z"/><path class="cls-2" d="M54.19,212v-3.55c8.87.2,17.67.23,26.53,0v2.82a32.74,32.74,0,0,0-3.64,1.41V229a97,97,0,0,1-14.43,4.23,63.61,63.61,0,0,1-12,1.1q-16.78,0-26.29-8.72T14.86,203q0-14.26,9.68-22.84t27.81-8.58a72.63,72.63,0,0,1,12.28,1,59.76,59.76,0,0,1,11.16,3c.54.91-1.33,12.35-1.48,14.42H70.57a49.88,49.88,0,0,0-.55-7.3,17,17,0,0,0-7.16-4.82,29.64,29.64,0,0,0-10.33-1.62c-7.45,0-13.35,2.27-17.78,6.8s-6.63,10.71-6.63,18.58q0,12.57,7,20.25a22.31,22.31,0,0,0,17.21,7.67,29,29,0,0,0,11.58-2.67c.25-2.36.83-12.59-.44-13.7C62.94,212.74,59.87,212.35,54.19,212Z"/><polygon class="cls-3" points="147.6 94.67 147.6 0 112.91 6.01 121.89 108.86 147.6 94.67"/><polygon class="cls-4" points="171.62 81.41 174.28 10.41 147.6 0 147.6 94.67 171.62 81.41"/><polygon class="cls-4" points="212.19 95.5 212.19 0 246.82 5.26 237.89 110.59 212.19 95.5"/><polygon class="cls-3" points="188.16 81.4 185.51 10.41 212.19 0 212.19 95.5 188.16 81.4"/><polygon class="cls-4" points="238.11 141.88 356.62 138.39 356.62 129.91 336.75 131 336.91 122.86 306.67 123.9 306.9 115.95 255.76 117.49 245.79 117.79 238.11 118.01 238.11 141.88"/><polygon class="cls-4" points="121.94 115.91 180.02 83.87 180.02 108.08 121.94 139.78 121.94 115.91"/><polygon class="cls-3" points="238.11 118.01 180.02 83.92 180.02 108.13 238.11 141.88 238.11 118.01"/><path class="cls-5" d="M161.07,10.93l8.18,3.55-.13,3.59-8.05-3.51Zm-9.29-4,8.51,3.68v3.63l-8.51-3.68Z"/><path class="cls-5" d="M161.07,16.56l8,3.33-.13,3.58-7.84-3.27Zm-9.29-3.84,8.51,3.54v3.63l-8.51-3.54Z"/><path class="cls-5" d="M161.07,22.22l7.77,3.08-.13,3.58-7.64-3Zm-9.29-3.68,8.51,3.37v3.63l-8.51-3.37Z"/><path class="cls-5" d="M161.07,27.85l7.58,2.87-.15,3.58-7.43-2.82Zm-9.29-3.5,8.51,3.21v3.63L151.78,28Z"/><path class="cls-5" d="M161.07,33.49l7.37,2.66-.13,3.58-7.24-2.61Zm-9.29-3.32,8.51,3v3.64l-8.51-3.05Z"/><path class="cls-5" d="M161.07,39.14l7.17,2.44-.13,3.59-7-2.4ZM151.78,36l8.51,2.9V42.5l-8.51-2.88Z"/><path class="cls-5" d="M161.07,44.83,168,47l-.13,3.59-6.83-2.17Zm-9.29-2.92,8.51,2.67v3.63l-8.51-2.68Z"/><path class="cls-5" d="M161.07,50.48l6.76,2-.13,3.59-6.63-2Zm-9.29-2.75,8.51,2.52v3.63l-8.51-2.52Z"/><path class="cls-5" d="M199.39,10.93l-8.07,3.5.13,3.58,7.94-3.45Zm9.29-4-8.51,3.68v3.63l8.51-3.68Z"/><path class="cls-5" d="M199.39,16.56l-7.87,3.28.14,3.58,7.73-3.22Zm9.29-3.84-8.51,3.54v3.63l8.51-3.54Z"/><path class="cls-5" d="M199.39,22.22l-7.66,3,.13,3.57,7.53-3Zm9.29-3.68-8.51,3.37v3.63l8.51-3.37Z"/><path class="cls-5" d="M199.39,27.85l-7.47,2.82.13,3.58,7.34-2.77Zm9.29-3.5-8.51,3.21v3.63l8.51-3.2Z"/><path class="cls-5" d="M199.39,33.49l-7.26,2.62.13,3.59,7.13-2.58Zm9.29-3.32-8.51,3v3.64l8.51-3.05Z"/><path class="cls-5" d="M199.39,39.14l-7.06,2.4.13,3.6,6.93-2.37ZM208.68,36l-8.51,2.9V42.5l8.51-2.88Z"/><path class="cls-5" d="M199.39,44.83,192.54,47l.13,3.6,6.72-2.13Zm9.29-2.92-8.51,2.67v3.63l8.51-2.68Z"/><path class="cls-5" d="M199.39,50.48l-6.65,2,.13,3.6,6.52-1.94Zm9.29-2.75-8.51,2.52v3.63l8.51-2.52Z"/><polygon class="cls-3" points="121.92 139.78 3.88 133.15 3.88 124.69 23.29 126.35 23.14 118.21 53.36 120.23 53.13 112.28 121.94 115.91 121.92 139.78"/><rect class="cls-6" x="157.57" y="128.29" width="19.53" height="13.89"/><rect class="cls-6" x="182.39" y="128.29" width="19.53" height="13.89"/><rect class="cls-6" x="157.57" y="145.72" width="19.53" height="13.91"/><rect class="cls-6" x="182.39" y="145.72" width="19.53" height="13.91"/><polygon class="cls-7" points="175.97 416.31 351.94 395.7 351.94 451.76 175.97 515.5 175.97 416.31"/><polygon class="cls-8" points="175.97 416.31 351.94 395.7 0 395.7 175.97 416.31"/><polygon class="cls-9" points="175.97 416.31 0 395.7 0 451.76 175.97 515.5 175.97 416.31"/><polygon class="cls-5" points="208.27 489.43 205.37 490.49 205.29 426.28 208.19 425.97 208.27 489.43"/><polygon class="cls-5" points="231.77 481.47 228.28 482.67 216.37 433.51 216.48 486.66 213.54 487.8 213.39 425.35 217.17 424.71 228.94 473.6 228.78 422.92 231.77 422.35 231.77 481.47"/><path class="cls-5" d="M251.76,472.44a11.12,11.12,0,0,1-5.93,5.26c-3.09,1.06-5.58-.74-7.42-5.42a37.47,37.47,0,0,1-2.12-8.58,88.15,88.15,0,0,1-.69-11.58,96.92,96.92,0,0,1,.76-12.81A51.75,51.75,0,0,1,238.7,429c2.07-6,4.72-9.29,7.9-9.77a5.68,5.68,0,0,1,5.1,1.51v6.93c-1.53-2-3.24-2.77-5.13-2.45-2.48.42-4.5,2.95-6,7.64a42,42,0,0,0-1.74,8.11,86.62,86.62,0,0,0-.54,10.14,71.68,71.68,0,0,0,.54,9.35,30.37,30.37,0,0,0,1.66,6.83c1.43,3.72,3.32,5.17,5.67,4.42,2.17-.7,4.06-2.56,5.62-5.52C251.75,468.24,251.76,470.34,251.76,472.44Z"/><path class="cls-5" d="M272.91,467.62l-2.8.95c-.39-2.3-.8-4.62-1.19-6.94s-.75-4.66-1.12-7l-9.17,2.62-1.08,7.94c-.36,2.65-.72,5.33-1.09,8-.91.32-1.85.63-2.78.93q2.06-14.39,4.1-28.54t4.13-27.8c.86-.15,1.74-.28,2.62-.41q2.07,12.9,4.18,25.53C270.09,451.2,271.51,459.46,272.91,467.62Zm-6-18.29c-.57-3.6-1.15-7.22-1.7-10.83s-1.15-7.3-1.73-11c-.11-.71-.21-1.9-.32-3.5,0,0-.05,0-.07,0-.08,1.55-.21,2.73-.34,3.65-.55,3.89-1.13,7.82-1.67,11.76s-1.11,7.9-1.65,11.89Z"/><path class="cls-5" d="M300.05,458.47l-3,1c-.62-2-1.24-4-1.84-6s-1.21-4.09-1.81-6.16a26.84,26.84,0,0,0-1-2.91,8.24,8.24,0,0,0-1-1.91,2.33,2.33,0,0,0-1-.94,2,2,0,0,0-1.28-.07l-2.08.54c0,3.48,0,6.95,0,10.42s0,7,0,10.43c-.84.27-1.69.57-2.53.86q0-12.39,0-24.74t0-24.73l6.46-1a4.23,4.23,0,0,1,2.6.37,5.28,5.28,0,0,1,2.1,2,12.53,12.53,0,0,1,1.38,3.71,25.65,25.65,0,0,1,.49,5.42,29.94,29.94,0,0,1-.34,4.58,21.91,21.91,0,0,1-1,3.89,14.92,14.92,0,0,1-1.5,3.13,9.22,9.22,0,0,1-2,2.28v.13a4.17,4.17,0,0,1,.94,1,6.36,6.36,0,0,1,.76,1.43,19.72,19.72,0,0,1,.74,1.91c.23.7.48,1.55.78,2.51.68,2.18,1.35,4.36,2,6.5S299.35,456.36,300.05,458.47ZM287,419v8.89c0,3,0,5.93,0,8.9l3.44-.85a3.73,3.73,0,0,0,1.76-1.06,7.24,7.24,0,0,0,1.37-2.15,13.47,13.47,0,0,0,.92-3.09,20.52,20.52,0,0,0,.35-3.91,11.76,11.76,0,0,0-1.14-5.75,2.89,2.89,0,0,0-3.24-1.59Z"/><path class="cls-5" d="M319.75,451.82c-.95.31-1.87.64-2.8.95-.39-1.91-.8-3.82-1.17-5.75s-.75-3.87-1.14-5.82c-3,.88-6.1,1.74-9.16,2.62q-.56,3.38-1.09,6.74c-.35,2.27-.71,4.53-1.07,6.8-.94.33-1.89.63-2.81.94Q302.58,446,304.64,434t4.13-23.56c.88-.15,1.76-.28,2.64-.4,1.38,7.16,2.78,14.27,4.16,21.25S318.37,445.06,319.75,451.82Zm-5.95-15c-.58-3-1.14-6-1.7-9s-1.14-6.1-1.7-9.16c-.1-.62-.21-1.6-.33-2.95l-.06,0c-.09,1.28-.22,2.31-.35,3.06-.55,3.3-1.14,6.63-1.69,10s-1.1,6.71-1.66,10.08Z"/><path class="cls-5" d="M325.44,449.9l-2.54.86v-42.5l2.54-.41v42Z"/><path class="cls-5" d="M345.27,405.84c-2.12,6-4.28,12-6.36,18.17s-4.21,12.68-6.33,19.18l12.36-3.94v4.07l-16.13,5.44v-1.35c2.08-6.58,4.16-13.07,6.26-19.42s4.18-12.41,6.29-18.46c-3.87.67-7.7,1.36-11.54,2v-4.36c5.14-.82,10.27-1.62,15.45-2.41Z"/><polygon class="cls-5" points="203.23 430.55 190.91 432.57 190.95 458.82 202.56 456.59 202.56 460.31 190.95 462.7 191 495.25 187.52 496.65 187.55 429.08 203.23 426.67 203.23 430.55"/></g></g></svg>