<svg xmlns="http://www.w3.org/2000/svg" xmlns:xlink="http://www.w3.org/1999/xlink" width="164" height="164" viewBox="0 0 164 164">
    <defs>
        <filter id="qupvx3bvta" width="125.9%" height="125.9%" x="-12.9%" y="-10.1%" filterUnits="objectBoundingBox">
            <feMorphology in="SourceAlpha" operator="dilate" radius="4.095" result="shadowSpreadOuter1"/>
            <feOffset dy="4" in="shadowSpreadOuter1" result="shadowOffsetOuter1"/>
            <feGaussianBlur in="shadowOffsetOuter1" result="shadowBlurOuter1" stdDeviation="4"/>
            <feComposite in="shadowBlurOuter1" in2="SourceAlpha" operator="out" result="shadowBlurOuter1"/>
            <feColorMatrix in="shadowBlurOuter1" values="0 0 0 0 0 0 0 0 0 0 0 0 0 0 0 0 0 0 0.102751359 0"/>
        </filter>
        <circle id="64l7ep5v6b" cx="70" cy="70" r="70"/>
        <path id="isbwtpmsrc" d="M0.025 1.243L59.525 1.243 59.525 49.999 0.025 49.999z"/>
    </defs>
    <g fill="none" fill-rule="evenodd" transform="translate(12 8)">
        <use fill="#000" filter="url(#qupvx3bvta)" xlink:href="#64l7ep5v6b"/>
        <use fill="#E6E7E8" stroke="#FFF" stroke-width="8.19" xlink:href="#64l7ep5v6b"/>
        <g>
            <g>
                <g transform="translate(30 30) translate(8.333 11.667) translate(5 5.935)">
                    <mask id="48f6xqjlhd" fill="#fff">
                        <use xlink:href="#isbwtpmsrc"/>
                    </mask>
                    <path fill="#FCD603" d="M55.639 50H3.912C1.765 50 .025 48.26.025 46.112V5.13c0-2.147 1.74-3.887 3.887-3.887h51.727c2.146 0 3.886 1.74 3.886 3.887v40.983c0 2.147-1.74 3.886-3.886 3.886" mask="url(#48f6xqjlhd)"/>
                </g>
                <g fill="#FFF">
                    <path d="M10.458 18.858c-.61 0-1.217-.253-1.645-.751l-7.32-8.47L8.786.87c.767-.923 2.135-1.05 3.059-.281.923.768 1.048 2.136.281 3.058L7.19 9.584l4.908 5.683c.786.908.686 2.28-.222 3.063-.412.355-.916.529-1.418.529" transform="translate(30 30) translate(8.333 11.667) translate(0 9.268)"/>
                    <path d="M34.636 11.887H5.024c-1.198 0-2.171-.973-2.171-2.173 0-1.198.973-2.17 2.171-2.17h29.612c1.2 0 2.173.972 2.173 2.17 0 1.2-.973 2.173-2.173 2.173M47.968 11.887h-7.749c-1.2 0-2.173-.973-2.173-2.173 0-1.198.973-2.17 2.173-2.17h7.749c1.2 0 2.171.972 2.171 2.17 0 1.2-.971 2.173-2.171 2.173M53.73 37.949c-.49 0-.982-.165-1.389-.504-.922-.766-1.048-2.136-.282-3.058l4.937-5.933-4.908-5.684c-.785-.908-.685-2.281.221-3.065.91-.785 2.285-.683 3.064.224l7.32 8.471-7.292 8.765c-.43.517-1.048.784-1.672.784" transform="translate(30 30) translate(8.333 11.667) translate(0 9.268)"/>
                    <path d="M59.16 30.493H29.55c-1.198 0-2.17-.974-2.17-2.174 0-1.198.972-2.171 2.17-2.171h29.612c1.2 0 2.173.973 2.173 2.171 0 1.2-.973 2.174-2.173 2.174M23.969 30.493H16.22c-1.2 0-2.173-.974-2.173-2.174 0-1.198.973-2.171 2.173-2.171h7.749c1.198 0 2.171.973 2.171 2.171 0 1.2-.973 2.174-2.171 2.174" transform="translate(30 30) translate(8.333 11.667) translate(0 9.268)"/>
                </g>
                <path fill="#58595B" d="M7.912 27.775c-.405 0-.808-.17-1.095-.502L.704 20.197c-.465-.537-.472-1.328-.018-1.873l6.115-7.35c.508-.612 1.423-.699 2.04-.185.615.508.698 1.423.185 2.038l-5.329 6.405L9.01 25.38c.523.607.457 1.522-.15 2.044-.273.236-.61.351-.947.351" transform="translate(30 30) translate(8.333 11.667)"/>
                <path fill="#58595B" d="M32.094 20.804H2.482c-.8 0-1.448-.648-1.448-1.446 0-.802.648-1.449 1.448-1.449h29.612c.8 0 1.446.647 1.446 1.449 0 .798-.646 1.446-1.446 1.446M45.424 20.804h-7.749c-.8 0-1.448-.648-1.448-1.446 0-.802.648-1.449 1.448-1.449h7.749c.8 0 1.448.647 1.448 1.449 0 .798-.648 1.446-1.448 1.446M51.185 46.867c-.323 0-.654-.11-.925-.335-.614-.51-.698-1.425-.186-2.04l5.33-6.405-5.312-6.149c-.525-.604-.456-1.52.15-2.043.602-.52 1.517-.458 2.042.15l6.113 7.077c.462.538.47 1.328.019 1.873L52.3 46.347c-.285.343-.699.52-1.116.52" transform="translate(30 30) translate(8.333 11.667)"/>
                <path fill="#58595B" d="M56.618 39.41H27.007c-.8 0-1.449-.647-1.449-1.447s.649-1.447 1.449-1.447h29.611c.8 0 1.449.647 1.449 1.447s-.649 1.448-1.449 1.448M21.425 39.41h-7.749c-.8 0-1.448-.647-1.448-1.447s.648-1.447 1.448-1.447h7.749c.8 0 1.448.647 1.448 1.447s-.648 1.448-1.448 1.448" transform="translate(30 30) translate(8.333 11.667)"/>
                <path fill="#5C5C60" d="M61.145 29.945c-.71 0-1.285-.575-1.285-1.285V8.028c0-2.09-1.702-3.79-3.792-3.79H6.361c-2.09 0-3.791 1.7-3.791 3.79v3.498c0 .71-.574 1.287-1.284 1.287-.711 0-1.286-.577-1.286-1.287V8.028C0 4.52 2.853 1.666 6.36 1.666h49.707c3.51 0 6.362 2.854 6.362 6.362V28.66c0 .71-.574 1.285-1.285 1.285M56.068 53.346H6.362C2.852 53.346 0 50.491 0 46.985V25.953c0-.708.575-1.285 1.286-1.285.71 0 1.284.577 1.284 1.285v21.032c0 2.09 1.701 3.79 3.792 3.79h49.706c2.09 0 3.792-1.7 3.792-3.79v-2.877c0-.71.575-1.285 1.285-1.285.711 0 1.285.575 1.285 1.285v2.877c0 3.506-2.853 6.361-6.362 6.361" transform="translate(30 30) translate(8.333 11.667)"/>
            </g>
        </g>
    </g>
</svg>
