<svg xmlns="http://www.w3.org/2000/svg" xmlns:xlink="http://www.w3.org/1999/xlink" width="164" height="164" viewBox="0 0 164 164">
    <defs>
        <path id="bh207nzckc" d="M1.188 0.401L64.12 0.401 64.12 63.333 1.188 63.333z"/>
        <path id="g2b3i63y4e" d="M0 0.214L66.316 0.214 66.316 66.532 0 66.532z"/>
        <filter id="tzb47u7vua" width="125.9%" height="125.9%" x="-12.9%" y="-10.1%" filterUnits="objectBoundingBox">
            <feMorphology in="SourceAlpha" operator="dilate" radius="4.095" result="shadowSpreadOuter1"/>
            <feOffset dy="4" in="shadowSpreadOuter1" result="shadowOffsetOuter1"/>
            <feGaussianBlur in="shadowOffsetOuter1" result="shadowBlurOuter1" stdDeviation="4"/>
            <feComposite in="shadowBlurOuter1" in2="SourceAlpha" operator="out" result="shadowBlurOuter1"/>
            <feColorMatrix in="shadowBlurOuter1" values="0 0 0 0 0 0 0 0 0 0 0 0 0 0 0 0 0 0 0.102751359 0"/>
        </filter>
        <circle id="pec87ghzqb" cx="70" cy="70" r="70"/>
    </defs>
    <g fill="none" fill-rule="evenodd" transform="translate(12 8)">
        <use fill="#000" filter="url(#tzb47u7vua)" xlink:href="#pec87ghzqb"/>
        <use fill="#E6E7E8" stroke="#FFF" stroke-width="8.19" xlink:href="#pec87ghzqb"/>
        <g>
            <g>
                <g transform="translate(30 30) translate(6.667 5) translate(3.333 6.453)">
                    <mask id="ri0pkirvcd" fill="#fff">
                        <use xlink:href="#bh207nzckc"/>
                    </mask>
                    <path fill="#FCD603" d="M64.121 31.866c0 17.38-14.088 31.468-31.466 31.468-17.379 0-31.467-14.088-31.467-31.468C1.188 14.489 15.276.401 32.654.401c17.379 0 31.467 14.088 31.467 31.465" mask="url(#ri0pkirvcd)"/>
                </g>
                <g transform="translate(30 30) translate(6.667 5) translate(0 1.453)">
                    <mask id="h4m8hfgzjf" fill="#fff">
                        <use xlink:href="#g2b3i63y4e"/>
                    </mask>
                    <path fill="#5C5C60" d="M36.974 63.556c4.855-4.587 8.49-10.18 10.662-16.354 3.575.867 7.067 2.067 10.458 3.59-4.818 6.877-12.396 11.665-21.12 12.764zM21.768 46.592c3.286-.63 6.633-.986 10.035-1.065v16.227c-4.55-4.247-7.965-9.433-10.035-15.162zM6.803 48.577C4.154 44 2.71 38.801 2.71 33.374c0-5.585 1.538-10.807 4.173-15.312 3.697 1.688 7.505 3.007 11.41 3.945-1.02 3.635-1.558 7.433-1.558 11.315 0 3.862.535 7.637 1.542 11.252-3.927.955-7.759 2.288-11.475 4.003zm22.91-45.44c-4.824 4.572-8.437 10.14-10.605 16.282-3.674-.872-7.255-2.099-10.737-3.662 4.893-6.865 12.547-11.623 21.342-12.62zM57.948 15.76c-3.362 1.508-6.82 2.697-10.36 3.56-2.159-6.067-5.727-11.572-10.482-16.105 8.583 1.118 16.042 5.81 20.842 12.545zM34.514 42.807V23.73c3.817-.076 7.574-.488 11.25-1.23 1 3.47 1.522 7.107 1.522 10.822 0 3.673-.513 7.268-1.488 10.702-3.689-.737-7.455-1.145-11.284-1.217zm0 19.338V45.52c3.54.07 7.025.438 10.442 1.103-2.135 5.892-5.687 11.215-10.442 15.523zM31.803 4.892V21.02c-3.392-.073-6.73-.42-10.005-1.04 2.071-5.696 5.475-10.86 10.005-15.088zm2.711-.397c4.722 4.282 8.255 9.567 10.395 15.41-3.401.665-6.87 1.04-10.395 1.115V4.496zM19.448 33.323c0-3.688.516-7.298 1.501-10.745 3.552.692 7.172 1.08 10.854 1.153v19.085c-3.687.082-7.317.479-10.874 1.18-.97-3.424-1.481-7.008-1.481-10.673zm40.111 15.153c-3.601-1.643-7.313-2.931-11.113-3.863 1.015-3.627 1.55-7.415 1.55-11.29 0-3.917-.545-7.752-1.583-11.415 3.768-.931 7.448-2.21 11.021-3.841 2.635 4.503 4.172 9.723 4.172 15.308 0 5.496-1.487 10.645-4.047 15.101zM33.171.215l-.012-.001-.011.002C14.868.222-.001 15.094-.001 33.373c0 8.841 3.442 17.16 9.687 23.418.528.53 1.388.533 1.917.003.531-.528.533-1.388.003-1.916-1.24-1.242-2.333-2.588-3.327-3.993 3.502-1.589 7.109-2.834 10.805-3.72 2.185 6.225 5.857 11.863 10.769 16.475-3.529-.377-6.922-1.357-10.127-2.935-.673-.337-1.483-.054-1.815.616-.332.672-.055 1.485.618 1.815 4.572 2.254 9.494 3.395 14.63 3.395 18.284 0 33.157-14.875 33.157-33.158 0-18.28-14.868-33.152-33.145-33.159z" mask="url(#h4m8hfgzjf)"/>
                </g>
                <path fill="#5C5C60" d="M14.954 59.375c-.333-.15-.716-.15-1.05 0-.165.067-.3.168-.433.283-.25.25-.4.6-.4.967 0 .35.15.7.4.95.133.133.268.233.434.3.168.067.35.102.533.102.35 0 .7-.15.95-.402.25-.25.4-.6.4-.95 0-.367-.15-.717-.4-.967-.132-.115-.284-.216-.434-.283" transform="translate(30 30) translate(6.667 5)"/>
            </g>
        </g>
    </g>
</svg>
