<svg width="217" height="61" viewBox="0 0 217 61" fill="none" xmlns="http://www.w3.org/2000/svg">
<path fill-rule="evenodd" clip-rule="evenodd" d="M25.8756 26.8384C26.0013 27.3257 26.4916 27.577 26.9897 27.4118C31.0735 26.1575 35.1674 25.2991 39.3914 24.6747C39.8755 24.61 40.1404 24.1103 39.9624 23.6091C39.5874 22.5529 39.3978 22.0262 39.0145 20.9762C38.8518 20.5303 38.4116 20.2379 37.9611 20.2867C33.833 20.7947 29.8447 21.545 25.8477 22.7007C25.3272 22.8638 25.0076 23.4456 25.1388 23.9617C25.4309 25.1107 25.5783 25.6859 25.8756 26.8384Z" fill="#2C2A29"/>
<path fill-rule="evenodd" clip-rule="evenodd" d="M42.4305 27.4157C42.272 26.9437 41.8418 26.6282 41.4164 26.6838C34.9538 27.5061 28.6609 29.1008 22.6936 31.7364C22.2583 31.9419 21.9972 32.4884 22.0884 32.97C22.3224 34.2018 22.4404 34.8183 22.6792 36.0524C22.7812 36.5801 23.275 36.8231 23.762 36.5861C29.8234 33.8151 36.2288 32.0508 42.7999 30.9988C43.2175 30.9305 43.4305 30.4528 43.2707 29.9606C42.9397 28.9401 42.7715 28.4312 42.4305 27.4157Z" fill="#2C2A29"/>
<path fill-rule="evenodd" clip-rule="evenodd" d="M42.4095 34.2945C42.2493 33.7907 41.7812 33.462 41.3364 33.5533C37.3012 34.4272 33.357 35.4804 29.4497 36.8205C28.9542 37.0021 28.6751 37.5239 28.8053 38.0039C29.1159 39.1475 29.2723 39.7202 29.5867 40.8674C29.7344 41.4063 30.3404 41.682 30.8986 41.4697C34.8044 40.0735 38.7495 38.8544 42.7809 37.877C43.1675 37.7832 43.3578 37.3306 43.2141 36.8637C42.8967 35.8338 42.7359 35.3199 42.4095 34.2945Z" fill="#2C2A29"/>
<path fill-rule="evenodd" clip-rule="evenodd" d="M57.8186 33.1664C57.8186 31.7808 56.9356 31.2057 55.1955 31.2057H53.1179V35.1269H55.1696C56.8577 35.1269 57.8186 34.4474 57.8186 33.1664ZM54.78 24.3304C54.2346 24.3304 53.6634 24.3827 53.1179 24.4612V27.938H54.8839C56.442 27.938 57.1693 27.2844 57.1693 26.1604C57.1693 25.0886 56.4162 24.3304 54.78 24.3304ZM62.0774 33.3494C62.0774 36.4079 59.0131 38.4471 55.533 38.4471H49.1445V21.5595C51.2741 21.2458 52.8843 21.0366 54.78 21.0366C58.2859 21.0366 61.0907 22.6834 61.0907 25.5592C61.0907 27.206 60.2337 28.304 58.7014 28.9053C61.0648 29.585 62.0774 31.0228 62.0774 33.3494Z" fill="#2C2A29"/>
<path fill-rule="evenodd" clip-rule="evenodd" d="M71.2268 35.101V32.8528H70.4736C68.7078 32.8528 67.0976 33.245 67.0976 34.4735C67.0976 35.4147 67.7209 35.7545 68.9935 35.7545C70.0063 35.7545 70.8372 35.4406 71.2268 35.101ZM75.0443 30.2124V37.0876C73.6421 38.1595 71.3826 38.7346 68.3182 38.7346C65.5915 38.7346 63.332 37.6105 63.332 35.1269C63.332 31.3887 66.9418 30.4738 71.2268 30.3431C71.1489 28.7223 70.4996 28.304 69.0712 28.304C68.3182 28.304 66.3185 28.6438 66.059 28.6438C65.4355 28.6438 64.9422 28.2517 64.5267 27.1016L64.2149 26.1604C65.825 25.5592 67.4093 25.1409 69.1233 25.1409C72.8629 25.1409 75.0443 26.5526 75.0443 30.2124Z" fill="#2C2A29"/>
<path fill-rule="evenodd" clip-rule="evenodd" d="M89.3429 29.1406V38.4471H85.4475V30.526C85.4475 29.1406 84.5387 28.4347 82.9545 28.4347C82.3573 28.4347 81.7859 28.5131 81.2923 28.6439V38.4471H77.3711L77.3969 26.814C79.033 25.716 81.6819 25.1147 83.8375 25.1147C86.8241 25.1147 89.3429 26.6047 89.3429 29.1406Z" fill="#2C2A29"/>
<path fill-rule="evenodd" clip-rule="evenodd" d="M91.0352 32.0686C91.0352 27.4936 94.2034 25.0886 98.3066 25.0886C99.4493 25.0886 100.488 25.2455 101.735 25.5331C101.579 26.8402 101.033 27.9903 100.436 28.6439C99.9947 28.5132 99.2675 28.4086 98.8522 28.4086C96.2291 28.4086 95.1643 29.768 95.1643 31.8333C95.1643 33.9246 96.1512 35.2056 98.6183 35.2056C99.2937 35.2056 100.073 35.0748 101.033 34.7348L101.735 37.872C100.306 38.4471 98.826 38.7085 97.6574 38.7085C93.6582 38.7085 91.0352 36.3034 91.0352 32.0686Z" fill="#2C2A29"/>
<path fill-rule="evenodd" clip-rule="evenodd" d="M112.123 31.8856C112.123 29.7419 111.084 28.487 109.266 28.487C107.5 28.487 106.41 29.7419 106.41 31.8856C106.41 34.1337 107.475 35.3101 109.266 35.3101C111.084 35.3101 112.123 34.1337 112.123 31.8856ZM102.488 31.8856C102.488 27.7027 105.293 25.0886 109.266 25.0886C113.395 25.0886 116.044 27.8073 116.044 31.8856C116.044 36.0942 113.37 38.7085 109.266 38.7085C105.137 38.7085 102.488 36.016 102.488 31.8856Z" fill="#2C2A29"/>
<path fill-rule="evenodd" clip-rule="evenodd" d="M118.25 21.664C119.159 20.9843 121.133 20.4092 122.171 20.4092V38.447H118.25V21.664Z" fill="#2C2A29"/>
<path fill-rule="evenodd" clip-rule="evenodd" d="M134.014 31.8856C134.014 29.7419 132.975 28.487 131.157 28.487C129.391 28.487 128.3 29.7419 128.3 31.8856C128.3 34.1337 129.365 35.3101 131.157 35.3101C132.975 35.3101 134.014 34.1337 134.014 31.8856ZM124.379 31.8856C124.379 27.7027 127.184 25.0886 131.157 25.0886C135.286 25.0886 137.935 27.8073 137.935 31.8856C137.935 36.0942 135.26 38.7085 131.157 38.7085C127.028 38.7085 124.379 36.016 124.379 31.8856Z" fill="#2C2A29"/>
<path fill-rule="evenodd" clip-rule="evenodd" d="M159.776 29.1406V38.4471H155.906V30.526C155.906 29.1406 155.023 28.4347 153.465 28.4347C152.738 28.4347 152.037 28.5916 151.465 28.8269C151.673 29.402 151.777 30.0294 151.777 30.7091V38.4471H147.907V30.526C147.907 29.1406 147.024 28.4347 145.466 28.4347C144.869 28.4347 144.298 28.5131 143.804 28.6439V38.4471H139.883L139.909 26.814C141.467 25.716 143.908 25.1147 145.96 25.1147C147.596 25.1147 148.998 25.6637 150.011 26.5526C151.335 25.6897 153.179 25.1147 154.737 25.1147C157.568 25.1147 159.776 26.6309 159.776 29.1406Z" fill="#2C2A29"/>
<path fill-rule="evenodd" clip-rule="evenodd" d="M171.647 31.7025C171.647 29.2974 170.4 28.4347 168.4 28.4347C167.595 28.4347 166.946 28.5915 166.375 28.853V35.4147C167.076 35.5191 167.751 35.5713 168.374 35.5713C170.66 35.5713 171.647 33.7938 171.647 31.7025ZM175.516 31.2057C175.516 35.9635 172.711 38.7085 168.141 38.7085C165.907 38.7085 163.752 38.2902 162.453 37.6891V21.664C163.362 20.9843 165.362 20.4092 166.375 20.4092V26.6047C167.491 25.6376 168.842 25.1147 170.062 25.1147C173.932 25.1147 175.516 27.8073 175.516 31.2057Z" fill="#2C2A29"/>
<path fill-rule="evenodd" clip-rule="evenodd" d="M177.724 25.4807C178.269 25.2455 178.945 25.1147 179.698 25.1147C180.451 25.1147 181.1 25.2455 181.645 25.4807V38.4471H177.724V25.4807ZM177.672 21.3502C177.672 20.2523 178.581 19.3373 179.672 19.3373C180.788 19.3373 181.697 20.2262 181.697 21.3502C181.697 22.422 180.788 23.3632 179.672 23.3632C178.581 23.3632 177.672 22.4743 177.672 21.3502Z" fill="#2C2A29"/>
<path fill-rule="evenodd" clip-rule="evenodd" d="M191.489 35.101V32.8528H190.736C188.97 32.8528 187.359 33.245 187.359 34.4735C187.359 35.4147 187.983 35.7545 189.255 35.7545C190.268 35.7545 191.099 35.4406 191.489 35.101ZM195.307 30.2124V37.0876C193.904 38.1595 191.645 38.7346 188.58 38.7346C185.853 38.7346 183.594 37.6105 183.594 35.1269C183.594 31.3887 187.204 30.4738 191.489 30.3431C191.411 28.7223 190.762 28.304 189.333 28.304C188.58 28.304 186.58 28.6438 186.321 28.6438C185.697 28.6438 185.204 28.2517 184.788 27.1016L184.477 26.1604C186.087 25.5592 187.671 25.1409 189.385 25.1409C193.125 25.1409 195.307 26.5526 195.307 30.2124Z" fill="#2C2A29"/>
</svg>
