<svg xmlns="http://www.w3.org/2000/svg" viewBox="0 0 317.01 457.53"><defs><style>.cls-1,.cls-3,.cls-4,.cls-5,.cls-7,.cls-8,.cls-9{fill-rule:evenodd;}.cls-2{fill:#6d6e70;}.cls-3{fill:#c58224;}.cls-4{fill:#ed9c21;}.cls-10,.cls-5{fill:#fff;}.cls-6{fill:#ab1c21;}.cls-7{fill:#a91c20;}.cls-8{fill:#c61d23;}.cls-9{fill:#6b1517;}</style></defs><title>Recurso 1Logo</title><g id="Capa_2" data-name="Capa 2"><g id="Capa_1-2" data-name="Capa 1"><path class="cls-1" d="M15.47,234.28H68.53V222.42c-21.76,0-43.38-.21-64.92-.21V337.93c21.42,0,43-.45,64.92-.45V325.61H15.47V291.26H62.82V279.4H15.47Z"/><path class="cls-1" d="M166.13,234.28h30.33V337.93h11.86V234.28H239V222.42H166.13Z"/><polygon class="cls-1" points="77.07 337.93 141.24 337.78 141.24 325.91 88.93 325.91 88.93 222.21 77.07 222.21 77.07 337.93"/><rect x="146.87" y="222.21" width="11.86" height="115.72"/><path class="cls-1" d="M259.07,234.28h53.05V222.42c-21.75,0-43.37-.21-64.92-.21V337.93c21.43,0,43-.45,64.92-.45V325.61H259.07V291.26h47.35V279.4H259.07Z"/><path class="cls-2" d="M270.67,208q-14.25,0-21.83-7.32t-7.57-20.14a29.81,29.81,0,0,1,3.66-15.23,24.69,24.69,0,0,1,10.18-9.64c8.63-4.44,24.22-4.58,32.87-.13a23.26,23.26,0,0,1,9.64,9q3.39,5.73,3.38,14.08a31.37,31.37,0,0,1-3.71,15.63,25.64,25.64,0,0,1-10.45,10.19A33.81,33.81,0,0,1,270.67,208m1.48-4.19A15.13,15.13,0,0,0,284.57,198q4.65-5.73,4.64-17.43,0-12.29-5.31-18.85c-2.88-3.52-7.29-5.29-13.27-5.29q-8.38,0-13,5.52t-4.6,17a34.71,34.71,0,0,0,2.52,14q2.52,5.73,6.42,8.27T272.15,203.78Z"/><path class="cls-2" d="M192.87,207.18V204c3.06-.24,4.8-.48,5.22-.74,1.46-.77,1.22-7.47,1.25-8.84.12-4.7.17-9.25.17-13.68,0-8.24-.08-14.12-.25-17.67s-.43-5.51-.81-5.93-1.48-.68-3.34-.81l-2.24-.2V153c9.12.27,18.08,0,27.19,0q6.91,0,10.21,1.3a10.34,10.34,0,0,1,5,4,12,12,0,0,1,1.71,6.62,15.9,15.9,0,0,1-5.08,12,18,18,0,0,1-12.9,4.83,23.89,23.89,0,0,1-4.53-.57c-3.33-.94-3.41-4.28-.5-3.63a14,14,0,0,0,2.86.4,8.25,8.25,0,0,0,6.37-2.7q2.47-2.72,2.47-7.59c0-3.61-.86-6.31-2.56-8.09s-4.21-2.66-7.51-2.66a23.86,23.86,0,0,0-4.72.55q-.41,11.94-.4,20.25,0,2.79.3,17.82a44.1,44.1,0,0,0,.4,6.82c.49,1.79,5.83,1.61,7.29,1.71v3.16Z"/><path class="cls-2" d="M130.54,156.15V153c8.25.25,16.28.28,24.53,0v3.16a14.34,14.34,0,0,0-5,.62,1.74,1.74,0,0,0-.81.66,3.76,3.76,0,0,0-.58,1.82c-.15,1.44-.28,5.61-.39,12.46q-.07,7.15-.08,14.56c0,4,.47,7,1.39,8.92a9.11,9.11,0,0,0,4.05,4.24,18,18,0,0,0,8.38,2c4.14,0,7.29-.68,9.47-2.05a9.9,9.9,0,0,0,4.39-5.65C176.61,191.3,177,186,177,178l0-14.32q0-4.84-.46-5.81a1.51,1.51,0,0,0-.82-.81c-.62-.37-2.49-.65-5.64-.86V153c6.13.29,12.06.27,18.19,0v3.16c-2.55,0-4.15.29-4.78.86s-1,2-1.15,4.4q-.43,8.67-.47,19.62c0,4.67-.06,7.73-.16,9.18a21.56,21.56,0,0,1-2.59,9.11,15.91,15.91,0,0,1-7.18,6.21A28.6,28.6,0,0,1,159.39,208a31.45,31.45,0,0,1-12.89-2.32,15.85,15.85,0,0,1-7.31-5.87c-1.44-2.36-2.16-5.81-2.16-10.39l.16-17.41c0-1.39-.05-4.93-.16-10.64a9.51,9.51,0,0,0-.58-3.64,2.08,2.08,0,0,0-.95-.85,25.39,25.39,0,0,0-5-.7"/><path class="cls-2" d="M78.24,207.18V204a24.29,24.29,0,0,0,5.15-.74c1.27-.73,1.11-5.78,1.14-7q.19-8.28.2-13c0-4.3,0-9.74-.16-16.36q-.15-7.4-.72-9.07c-.46-1.44-4.41-1.5-5.61-1.63V153c10,.3,19.72.12,29.68,0,4.19,0,7.25.41,9.18,1.21a9.81,9.81,0,0,1,4.56,3.89,11.65,11.65,0,0,1,1.68,6.3,12.9,12.9,0,0,1-2.69,8.11c-1.78,2.34-4.9,4.39-9.33,6.19l8.21,12.44,6.39,9.54c1.92,2.43,2.48,3.29,5.64,3.35v2.92l-14.88.24q-3.36-5.38-10.06-15.58l-8-12.09a7.72,7.72,0,0,0,.58-1.36c1,.1,1.8.15,2.3.15a11,11,0,0,0,7.08-2.9q3.49-2.9,3.49-8.28a9.44,9.44,0,0,0-2.77-7.26c-1.84-1.73-4.61-2.6-8.29-2.6-1.17,0-2.76.08-4.76.24L96,168.93l-.31,14.5c0,3.29.13,7.48.38,12.6a40.79,40.79,0,0,0,.6,6.47c.71,1.52,4.71,1.44,6.06,1.52v3.16Z"/><path class="cls-2" d="M48.18,188.19V185c7.88.18,15.7.21,23.58,0v2.5a25.22,25.22,0,0,0-3.25,1.27v14.44A88.46,88.46,0,0,1,55.7,207,58.2,58.2,0,0,1,45,208q-14.93,0-23.37-7.74t-8.44-20.07q0-12.67,8.61-20.27t24.73-7.61a65.12,65.12,0,0,1,10.9.88,52.6,52.6,0,0,1,9.93,2.7c.48.81-1.19,11-1.32,12.79H62.74a44.71,44.71,0,0,0-.5-6.47,15.08,15.08,0,0,0-6.36-4.29,26.83,26.83,0,0,0-9.18-1.42q-9.91,0-15.8,6C27,166.52,25,172,25,179q0,11.16,6.21,18a19.87,19.87,0,0,0,15.3,6.82A25.73,25.73,0,0,0,56.8,201.4c.23-2.1.74-11.18-.38-12.16-.46-.41-3.2-.77-8.24-1.05"/><polygon class="cls-3" points="131.21 84.03 131.21 0 100.37 5.33 108.35 96.62 131.21 84.03"/><polygon class="cls-4" points="152.56 72.27 154.91 9.23 131.21 0 131.21 84.03 152.56 72.27"/><polygon class="cls-4" points="188.62 84.77 188.62 0 219.4 4.67 211.47 98.16 188.62 84.77"/><polygon class="cls-3" points="167.26 72.25 164.91 9.23 188.62 0 188.62 84.77 167.26 72.25"/><polygon class="cls-4" points="211.67 125.93 317.01 122.84 317.01 115.3 299.34 116.27 299.48 109.05 272.61 109.96 272.81 102.92 227.36 104.28 218.49 104.55 211.66 104.75 211.67 125.93"/><polygon class="cls-4" points="108.39 102.89 160.03 74.45 160.03 95.94 108.39 124.06 108.39 102.89"/><polygon class="cls-3" points="211.67 104.76 160.03 74.49 160.03 95.98 211.67 125.92 211.67 104.76"/><path class="cls-5" d="M143.17,9.71l7.28,3.15L150.33,16l-7.16-3.1Zm-8.24-3.58,7.55,3.28v3.22l-7.55-3.28Z"/><path class="cls-5" d="M143.17,14.71l7.1,2.95-.12,3.17-7-2.9Zm-8.24-3.42,7.55,3.14v3.22l-7.55-3.14Z"/><path class="cls-5" d="M143.17,19.72l6.92,2.74L150,25.64l-6.8-2.7Zm-8.24-3.27,7.55,3v3.22l-7.55-3Z"/><path class="cls-5" d="M143.17,24.73l6.74,2.54-.12,3.18L143.17,28Zm-8.24-3.12,7.55,2.86v3.22l-7.55-2.85Z"/><path class="cls-5" d="M143.17,29.73l6.56,2.36-.12,3.18L143.17,33Zm-8.24-3,7.55,2.72v3.22L134.93,30Z"/><path class="cls-5" d="M143.17,34.74l6.38,2.17-.12,3.18L143.17,38Zm-8.24-2.8,7.55,2.57v3.22l-7.55-2.57Z"/><path class="cls-5" d="M143.17,39.8l6.2,2-.12,3.18L143.17,43Zm-8.24-2.6,7.55,2.38V42.8l-7.55-2.38Z"/><path class="cls-5" d="M143.17,44.8l6,1.79-.12,3.19L143.17,48Zm-8.24-2.44,7.55,2.24v3.22l-7.55-2.24Z"/><path class="cls-5" d="M177.24,9.71l-7.17,3.11.12,3.17,7.05-3.06Zm8.25-3.58-7.56,3.28v3.22l7.56-3.28Z"/><path class="cls-5" d="M177.24,14.71l-7,2.9.12,3.18,6.87-2.86Zm8.25-3.42-7.56,3.14v3.22l7.56-3.14Z"/><path class="cls-5" d="M177.24,19.72l-6.81,2.7.12,3.18,6.69-2.66Zm8.25-3.27-7.56,3v3.22l7.56-3Z"/><path class="cls-5" d="M177.24,24.73l-6.63,2.5.12,3.18L177.24,28Zm8.25-3.12-7.56,2.86v3.22l7.56-2.85Z"/><path class="cls-5" d="M177.24,29.73l-6.45,2.32.12,3.18L177.24,33Zm8.25-3-7.56,2.72v3.22L185.49,30Z"/><path class="cls-5" d="M177.24,34.74,171,36.88l.12,3.18,6.15-2.1Zm8.25-2.8-7.56,2.57v3.22l7.56-2.57Z"/><path class="cls-5" d="M177.24,39.8l-6.09,1.92.12,3.18,6-1.88Zm8.25-2.6-7.56,2.38V42.8l7.56-2.38Z"/><path class="cls-5" d="M177.24,44.8l-5.91,1.76.12,3.19L177.24,48Zm8.25-2.44-7.56,2.24v3.22l7.56-2.24Z"/><polygon class="cls-3" points="108.38 124.06 3.46 118.17 3.46 110.68 20.71 112.15 20.57 104.93 47.44 106.72 47.24 99.67 108.39 102.89 108.38 124.06"/><rect class="cls-6" x="140.06" y="113.87" width="17.37" height="12.34"/><rect class="cls-6" x="162.13" y="113.87" width="17.37" height="12.34"/><rect class="cls-6" x="140.06" y="129.35" width="17.37" height="12.34"/><rect class="cls-6" x="162.13" y="129.35" width="17.37" height="12.34"/><polygon class="cls-7" points="156.42 369.51 312.84 351.22 312.84 400.97 156.42 457.53 156.42 369.51"/><polygon class="cls-8" points="156.42 369.51 312.84 351.22 0 351.22 156.42 369.51"/><polygon class="cls-9" points="156.42 369.51 0 351.22 0 400.97 156.42 457.53 156.42 369.51"/><path class="cls-10" d="M132,413.27l-6.51-18.69L119,410.53Zm1.15,3.29-15.33-3.23-3,7.31-3.42-.72,12.42-29.71,3.33.7,12.42,34.95-3.41-.72Zm-37.83.53A20.88,20.88,0,0,1,86.58,413a21.94,21.94,0,0,1-6-7.35,19.52,19.52,0,0,1-2.17-8.87,14.42,14.42,0,0,1,2.17-7.94,11.88,11.88,0,0,1,6-4.8,15.63,15.63,0,0,1,8.73-.4,19.4,19.4,0,0,1,6.63,2.76,20.93,20.93,0,0,1,5.34,4.93,19.23,19.23,0,0,1,3.18,6.22l-3.51-.74a15.12,15.12,0,0,0-4.48-6.42,15.67,15.67,0,0,0-7.16-3.61,12.8,12.8,0,0,0-7.11.3A9.37,9.37,0,0,0,83.33,391a11.91,11.91,0,0,0-1.73,6.5,16,16,0,0,0,1.73,7.22,17.32,17.32,0,0,0,4.87,5.95,17.14,17.14,0,0,0,7.11,3.3,11.31,11.31,0,0,0,7.16-.6,8.33,8.33,0,0,0,4.48-4.52l3.51.74a11.21,11.21,0,0,1-3.18,4.87,11.75,11.75,0,0,1-5.34,2.68A15.45,15.45,0,0,1,95.31,417.09ZM72.82,379.46v32.33l-2.77-.58L54.34,382V407.9l-3.23-.68V374.88l2.77.59,15.71,29.17V378.78Zm-29.1-6.13v32.33L40.49,405V372.64Zm-22.86-1.78V384.4l14.32,3v3l-14.32-3v13.4l-3.24-.68V367.82l3.24.69,15,3.16v3.05Z"/><path class="cls-10" d="M280.31,399.52v2.67l-22.9,5.89v-2.67l18.42-27.76-17.91,4.61v-2.68L279.8,374v2.67l-18.42,27.76Zm-30.08-20.8,4.89-6.52-4.07,1L247,379.56Zm1.07,2.56v28.37l-3.56.92V382.2Zm-16.49,23-7.17-13.35-7.18,17Zm1.27,2.35-16.89,4.35-3.31,7.81-3.77,1,13.69-31.88,3.67-.94,13.69,24.84-3.77,1Zm-48.9,5.52,9.16-2.35a10.47,10.47,0,0,0,6.16-4.5,6.1,6.1,0,0,0,1-3.17,3.91,3.91,0,0,0-1-2.67,4.79,4.79,0,0,0-2.6-1.46,7.36,7.36,0,0,0-3.56.13l-9.16,2.35Zm7.94.64-7.94,2v11.34l-3.57.92V398.68l3.57-.91,9.16-2.36a11.78,11.78,0,0,1,5.37-.24,6.83,6.83,0,0,1,3.89,2.1,5.63,5.63,0,0,1,1.42,3.9,9.31,9.31,0,0,1-2.21,5.74,15.07,15.07,0,0,1-5.62,4.46l12.92,8.35-4.47,1.15Z"/></g></g></svg>